<svg xmlns="http://www.w3.org/2000/svg" xmlns:xlink="http://www.w3.org/1999/xlink" width="39" height="40" viewBox="0 0 39 40">
  <defs>
    <clipPath id="clip-clock">
      <rect width="39" height="40"/>
    </clipPath>
  </defs>
  <g id="clock" clip-path="url(#clip-clock)">
    <path id="Icon_awesome-clock" data-name="Icon awesome-clock" d="M18,.563A17.438,17.438,0,1,0,35.438,18,17.434,17.434,0,0,0,18,.563Zm4.015,24.616-6.2-4.507a.849.849,0,0,1-.345-.682V8.156a.846.846,0,0,1,.844-.844h3.375a.846.846,0,0,1,.844.844v9.682L25,21.087a.843.843,0,0,1,.183,1.181L23.2,25A.85.85,0,0,1,22.015,25.179Z" transform="translate(1.5 2)"/>
  </g>
</svg>
